# xmcd
#
# Track frame offsets: 
#        150
#        12439
#        23681
#        36467
#        46052
#        57546
#        69805
#        82100
#        93938
#        106848
#        120707
#        133746
#        147535
#        159305
#        171022
#        182114
#        195870
#        207087
#        221553
#        236165
#        246685
#        257814
#
# Disc length: 3558 seconds
#
# Revision: 0
# Processed by: cddbd v1.5.2PL0 Copyright (c) Steve Scherf et al.
# Submitted via: ExactAudioCopy v1.3
#
DISCID=3c0de416
DTITLE=Sam Cooke - Singles Collection 1951-1962
DYEAR=2017
DGENRE=Soul
TTITLE0=Peace in the valley
TTITLE1=Jesus gave me water
TTITLE2=Come, let's go back to God
TTITLE3=Joy, joy to my soul
TTITLE4=I'm gonna build right on that shore
TTITLE5=Until Jesus calls me home
TTITLE6=Just another day
TTITLE7=Let me go home
TTITLE8=Jesus paid the debt
TTITLE9=He'll welcome me (to my home)
TTITLE10=End of my journey
TTITLE11=He's my friend until the end
TTITLE12=Come and go to that land
TTITLE13=Jesus, I'll never forget
TTITLE14=Any day now
TTITLE15=Nearer to thee
TTITLE16=Be with me Jesus
TTITLE17=One more river
TTITLE18=I'm so glad
TTITLE19=Wonderful
TTITLE20=Farther along
TTITLE21=Touch the hem of his garment
EXTD=
EXTT0=
EXTT1=
EXTT2=
EXTT3=
EXTT4=
EXTT5=
EXTT6=
EXTT7=
EXTT8=
EXTT9=
EXTT10=
EXTT11=
EXTT12=
EXTT13=
EXTT14=
EXTT15=
EXTT16=
EXTT17=
EXTT18=
EXTT19=
EXTT20=
EXTT21=
PLAYORDER=
